<svg width="196" height="197" viewBox="0 0 196 197" fill="none" xmlns="http://www.w3.org/2000/svg">
<circle cx="98" cy="98" r="98" fill="#131313"/>
<path d="M15.5003 102C8.90359 106.948 7.3336 125.333 8.00026 135.5C34 199 120 219 170.7 163C174.3 147.4 173.5 135.5 170.5 126C169.237 122 161.5 106.5 160.5 103.5C159.5 100.5 158.5 90.5 160 86C165.5 85.5 171 85.5 179 83.5C187.5 81 189 78 192.5 74.5C192.9 72.9 189 61 187.5 59.5C185 59.5 183 60.5 174.5 59.5C168.5 58.5 162.929 52.5 160.5 44C156.5 30 145.833 22.8333 141 21C132.6 16.6 111.5 15.3334 99.5 20C90.5 23.5 81 31.5 77.5 43C74.3044 53.5 74.5 60 77.5 71C81 81.5 86 86 83.5 99C83.0192 101.5 80.4522 103.562 78.5 105C69 112 60 112 50 110.5C43.5639 109.535 31.5 100.954 27.5006 99.5C22.0006 97.5 17.5 100.5 15.5003 102Z" fill="#EAE7E2" stroke="#EAE7E2" stroke-miterlimit="4.13357"/>
<circle cx="139" cy="60" r="8" fill="#131313"/>
<path d="M141.5 143.5C143.446 132.212 141.833 114.5 140.5 107C140.833 112.833 141 126.4 139 134C135.973 145.5 131 153 121 159.5L120.953 159.531C117.836 161.557 109.281 167.118 91.9998 164.5C75.5 162 67.9998 145 70.9998 152.5C73.9998 160 77 171.5 90.4998 177.5C109.679 186.024 123.784 175.772 128 172C137.5 163.5 138.913 158.5 141.5 143.5Z" fill="#131313" stroke="#131313"/>
</svg>
